<mxfile host="app.diagrams.net" agent="Mozilla/5.0 (Windows NT 10.0; Win64; x64; rv:136.0) Gecko/20100101 Firefox/136.0" version="26.2.2">
  <diagram name="Página-1" id="K9RDN214g1F_zYfi04yh">
    <mxGraphModel dx="2291" dy="1440" grid="0" gridSize="10" guides="1" tooltips="1" connect="1" arrows="1" fold="1" page="0" pageScale="1" pageWidth="827" pageHeight="1169" math="0" shadow="0">
      <root>
        <mxCell id="0" />
        <mxCell id="1" parent="0" />
        <mxCell id="T_tdR2kRKv0pg2XBUbw5-53" value="" style="rounded=0;whiteSpace=wrap;html=1;" vertex="1" parent="1">
          <mxGeometry x="-521" y="-195" width="983" height="777" as="geometry" />
        </mxCell>
        <mxCell id="T_tdR2kRKv0pg2XBUbw5-79" value="" style="rounded=0;whiteSpace=wrap;html=1;" vertex="1" parent="1">
          <mxGeometry x="-492" y="220.08" width="182" height="99.92" as="geometry" />
        </mxCell>
        <mxCell id="B_N775TEVK_9BKgCkRrB-1" value="User" style="shape=table;startSize=30;container=1;collapsible=0;childLayout=tableLayout;fixedRows=1;rowLines=0;fontStyle=1;strokeColor=default;fontSize=16;" parent="1" vertex="1">
          <mxGeometry x="-183" y="-113.14" width="180" height="145.7800087193083" as="geometry" />
        </mxCell>
        <mxCell id="B_N775TEVK_9BKgCkRrB-2" value="" style="shape=tableRow;horizontal=0;startSize=0;swimlaneHead=0;swimlaneBody=0;top=0;left=0;bottom=0;right=0;collapsible=0;dropTarget=0;fillColor=none;points=[[0,0.5],[1,0.5]];portConstraint=eastwest;strokeColor=inherit;fontSize=16;" parent="B_N775TEVK_9BKgCkRrB-1" vertex="1">
          <mxGeometry y="30" width="180" height="24" as="geometry" />
        </mxCell>
        <mxCell id="B_N775TEVK_9BKgCkRrB-3" value="1" style="shape=partialRectangle;html=1;whiteSpace=wrap;connectable=0;fillColor=none;top=0;left=0;bottom=0;right=0;overflow=hidden;pointerEvents=1;strokeColor=inherit;fontSize=16;" parent="B_N775TEVK_9BKgCkRrB-2" vertex="1">
          <mxGeometry width="40" height="24" as="geometry">
            <mxRectangle width="40" height="24" as="alternateBounds" />
          </mxGeometry>
        </mxCell>
        <mxCell id="B_N775TEVK_9BKgCkRrB-4" value="ID" style="shape=partialRectangle;html=1;whiteSpace=wrap;connectable=0;fillColor=none;top=0;left=0;bottom=0;right=0;align=left;spacingLeft=6;overflow=hidden;strokeColor=inherit;fontSize=16;" parent="B_N775TEVK_9BKgCkRrB-2" vertex="1">
          <mxGeometry x="40" width="140" height="24" as="geometry">
            <mxRectangle width="140" height="24" as="alternateBounds" />
          </mxGeometry>
        </mxCell>
        <mxCell id="B_N775TEVK_9BKgCkRrB-5" value="" style="shape=tableRow;horizontal=0;startSize=0;swimlaneHead=0;swimlaneBody=0;top=0;left=0;bottom=0;right=0;collapsible=0;dropTarget=0;fillColor=none;points=[[0,0.5],[1,0.5]];portConstraint=eastwest;strokeColor=inherit;fontSize=16;" parent="B_N775TEVK_9BKgCkRrB-1" vertex="1">
          <mxGeometry y="54" width="180" height="30" as="geometry" />
        </mxCell>
        <mxCell id="B_N775TEVK_9BKgCkRrB-6" value="2" style="shape=partialRectangle;html=1;whiteSpace=wrap;connectable=0;fillColor=none;top=0;left=0;bottom=0;right=0;overflow=hidden;strokeColor=inherit;fontSize=16;" parent="B_N775TEVK_9BKgCkRrB-5" vertex="1">
          <mxGeometry width="40" height="30" as="geometry">
            <mxRectangle width="40" height="30" as="alternateBounds" />
          </mxGeometry>
        </mxCell>
        <mxCell id="B_N775TEVK_9BKgCkRrB-7" value="Username" style="shape=partialRectangle;html=1;whiteSpace=wrap;connectable=0;fillColor=none;top=0;left=0;bottom=0;right=0;align=left;spacingLeft=6;overflow=hidden;strokeColor=inherit;fontSize=16;" parent="B_N775TEVK_9BKgCkRrB-5" vertex="1">
          <mxGeometry x="40" width="140" height="30" as="geometry">
            <mxRectangle width="140" height="30" as="alternateBounds" />
          </mxGeometry>
        </mxCell>
        <mxCell id="B_N775TEVK_9BKgCkRrB-8" value="" style="shape=tableRow;horizontal=0;startSize=0;swimlaneHead=0;swimlaneBody=0;top=0;left=0;bottom=0;right=0;collapsible=0;dropTarget=0;fillColor=none;points=[[0,0.5],[1,0.5]];portConstraint=eastwest;strokeColor=inherit;fontSize=16;" parent="B_N775TEVK_9BKgCkRrB-1" vertex="1">
          <mxGeometry y="84" width="180" height="30" as="geometry" />
        </mxCell>
        <mxCell id="B_N775TEVK_9BKgCkRrB-9" value="3" style="shape=partialRectangle;html=1;whiteSpace=wrap;connectable=0;fillColor=none;top=0;left=0;bottom=0;right=0;overflow=hidden;strokeColor=inherit;fontSize=16;" parent="B_N775TEVK_9BKgCkRrB-8" vertex="1">
          <mxGeometry width="40" height="30" as="geometry">
            <mxRectangle width="40" height="30" as="alternateBounds" />
          </mxGeometry>
        </mxCell>
        <mxCell id="B_N775TEVK_9BKgCkRrB-10" value="Email" style="shape=partialRectangle;html=1;whiteSpace=wrap;connectable=0;fillColor=none;top=0;left=0;bottom=0;right=0;align=left;spacingLeft=6;overflow=hidden;strokeColor=inherit;fontSize=16;" parent="B_N775TEVK_9BKgCkRrB-8" vertex="1">
          <mxGeometry x="40" width="140" height="30" as="geometry">
            <mxRectangle width="140" height="30" as="alternateBounds" />
          </mxGeometry>
        </mxCell>
        <mxCell id="B_N775TEVK_9BKgCkRrB-11" value="" style="shape=tableRow;horizontal=0;startSize=0;swimlaneHead=0;swimlaneBody=0;top=0;left=0;bottom=0;right=0;collapsible=0;dropTarget=0;fillColor=none;points=[[0,0.5],[1,0.5]];portConstraint=eastwest;strokeColor=inherit;fontSize=16;" parent="B_N775TEVK_9BKgCkRrB-1" vertex="1">
          <mxGeometry y="114" width="180" height="30" as="geometry" />
        </mxCell>
        <mxCell id="B_N775TEVK_9BKgCkRrB-12" value="4" style="shape=partialRectangle;html=1;whiteSpace=wrap;connectable=0;fillColor=none;top=0;left=0;bottom=0;right=0;overflow=hidden;strokeColor=inherit;fontSize=16;" parent="B_N775TEVK_9BKgCkRrB-11" vertex="1">
          <mxGeometry width="40" height="30" as="geometry">
            <mxRectangle width="40" height="30" as="alternateBounds" />
          </mxGeometry>
        </mxCell>
        <mxCell id="B_N775TEVK_9BKgCkRrB-13" value="Password" style="shape=partialRectangle;html=1;whiteSpace=wrap;connectable=0;fillColor=none;top=0;left=0;bottom=0;right=0;align=left;spacingLeft=6;overflow=hidden;strokeColor=inherit;fontSize=16;" parent="B_N775TEVK_9BKgCkRrB-11" vertex="1">
          <mxGeometry x="40" width="140" height="30" as="geometry">
            <mxRectangle width="140" height="30" as="alternateBounds" />
          </mxGeometry>
        </mxCell>
        <mxCell id="T_tdR2kRKv0pg2XBUbw5-14" value="Preciso fazer um histórico para o usuário, que vai basicamente ser responsável por pegar a task q o user pegou. Essas tasks não vão poder se repetir" style="text;html=1;align=center;verticalAlign=middle;whiteSpace=wrap;rounded=0;" vertex="1" parent="1">
          <mxGeometry x="57" y="-58.71626297577856" width="282" height="78.86159169550173" as="geometry" />
        </mxCell>
        <mxCell id="T_tdR2kRKv0pg2XBUbw5-15" style="edgeStyle=orthogonalEdgeStyle;rounded=0;orthogonalLoop=1;jettySize=auto;html=1;exitX=1;exitY=0.5;exitDx=0;exitDy=0;entryX=0;entryY=0.5;entryDx=0;entryDy=0;" edge="1" parent="1" source="B_N775TEVK_9BKgCkRrB-2" target="T_tdR2kRKv0pg2XBUbw5-5">
          <mxGeometry relative="1" as="geometry" />
        </mxCell>
        <mxCell id="T_tdR2kRKv0pg2XBUbw5-16" value="Task" style="shape=table;startSize=30;container=1;collapsible=0;childLayout=tableLayout;fixedRows=1;rowLines=0;fontStyle=1;strokeColor=default;fontSize=16;" vertex="1" parent="1">
          <mxGeometry x="-261" y="103" width="254" height="391.57" as="geometry" />
        </mxCell>
        <mxCell id="T_tdR2kRKv0pg2XBUbw5-17" value="" style="shape=tableRow;horizontal=0;startSize=0;swimlaneHead=0;swimlaneBody=0;top=0;left=0;bottom=0;right=0;collapsible=0;dropTarget=0;fillColor=none;points=[[0,0.5],[1,0.5]];portConstraint=eastwest;strokeColor=inherit;fontSize=16;" vertex="1" parent="T_tdR2kRKv0pg2XBUbw5-16">
          <mxGeometry y="30" width="254" height="30" as="geometry" />
        </mxCell>
        <mxCell id="T_tdR2kRKv0pg2XBUbw5-18" value="1" style="shape=partialRectangle;html=1;whiteSpace=wrap;connectable=0;fillColor=none;top=0;left=0;bottom=0;right=0;overflow=hidden;pointerEvents=1;strokeColor=inherit;fontSize=16;" vertex="1" parent="T_tdR2kRKv0pg2XBUbw5-17">
          <mxGeometry width="56" height="30" as="geometry">
            <mxRectangle width="56" height="30" as="alternateBounds" />
          </mxGeometry>
        </mxCell>
        <mxCell id="T_tdR2kRKv0pg2XBUbw5-19" value="ID" style="shape=partialRectangle;html=1;whiteSpace=wrap;connectable=0;fillColor=none;top=0;left=0;bottom=0;right=0;align=left;spacingLeft=6;overflow=hidden;strokeColor=inherit;fontSize=16;" vertex="1" parent="T_tdR2kRKv0pg2XBUbw5-17">
          <mxGeometry x="56" width="198" height="30" as="geometry">
            <mxRectangle width="198" height="30" as="alternateBounds" />
          </mxGeometry>
        </mxCell>
        <mxCell id="T_tdR2kRKv0pg2XBUbw5-20" value="" style="shape=tableRow;horizontal=0;startSize=0;swimlaneHead=0;swimlaneBody=0;top=0;left=0;bottom=0;right=0;collapsible=0;dropTarget=0;fillColor=none;points=[[0,0.5],[1,0.5]];portConstraint=eastwest;strokeColor=inherit;fontSize=16;" vertex="1" parent="T_tdR2kRKv0pg2XBUbw5-16">
          <mxGeometry y="60" width="254" height="30" as="geometry" />
        </mxCell>
        <mxCell id="T_tdR2kRKv0pg2XBUbw5-21" value="2" style="shape=partialRectangle;html=1;whiteSpace=wrap;connectable=0;fillColor=none;top=0;left=0;bottom=0;right=0;overflow=hidden;strokeColor=inherit;fontSize=16;" vertex="1" parent="T_tdR2kRKv0pg2XBUbw5-20">
          <mxGeometry width="56" height="30" as="geometry">
            <mxRectangle width="56" height="30" as="alternateBounds" />
          </mxGeometry>
        </mxCell>
        <mxCell id="T_tdR2kRKv0pg2XBUbw5-22" value="Type" style="shape=partialRectangle;html=1;whiteSpace=wrap;connectable=0;fillColor=none;top=0;left=0;bottom=0;right=0;align=left;spacingLeft=6;overflow=hidden;strokeColor=inherit;fontSize=16;" vertex="1" parent="T_tdR2kRKv0pg2XBUbw5-20">
          <mxGeometry x="56" width="198" height="30" as="geometry">
            <mxRectangle width="198" height="30" as="alternateBounds" />
          </mxGeometry>
        </mxCell>
        <mxCell id="T_tdR2kRKv0pg2XBUbw5-23" value="" style="shape=tableRow;horizontal=0;startSize=0;swimlaneHead=0;swimlaneBody=0;top=0;left=0;bottom=0;right=0;collapsible=0;dropTarget=0;fillColor=none;points=[[0,0.5],[1,0.5]];portConstraint=eastwest;strokeColor=inherit;fontSize=16;" vertex="1" parent="T_tdR2kRKv0pg2XBUbw5-16">
          <mxGeometry y="90" width="254" height="30" as="geometry" />
        </mxCell>
        <mxCell id="T_tdR2kRKv0pg2XBUbw5-24" value="3" style="shape=partialRectangle;html=1;whiteSpace=wrap;connectable=0;fillColor=none;top=0;left=0;bottom=0;right=0;overflow=hidden;strokeColor=inherit;fontSize=16;" vertex="1" parent="T_tdR2kRKv0pg2XBUbw5-23">
          <mxGeometry width="56" height="30" as="geometry">
            <mxRectangle width="56" height="30" as="alternateBounds" />
          </mxGeometry>
        </mxCell>
        <mxCell id="T_tdR2kRKv0pg2XBUbw5-25" value="Process" style="shape=partialRectangle;html=1;whiteSpace=wrap;connectable=0;fillColor=none;top=0;left=0;bottom=0;right=0;align=left;spacingLeft=6;overflow=hidden;strokeColor=inherit;fontSize=16;" vertex="1" parent="T_tdR2kRKv0pg2XBUbw5-23">
          <mxGeometry x="56" width="198" height="30" as="geometry">
            <mxRectangle width="198" height="30" as="alternateBounds" />
          </mxGeometry>
        </mxCell>
        <mxCell id="T_tdR2kRKv0pg2XBUbw5-26" value="" style="shape=tableRow;horizontal=0;startSize=0;swimlaneHead=0;swimlaneBody=0;top=0;left=0;bottom=0;right=0;collapsible=0;dropTarget=0;fillColor=none;points=[[0,0.5],[1,0.5]];portConstraint=eastwest;strokeColor=inherit;fontSize=16;" vertex="1" parent="T_tdR2kRKv0pg2XBUbw5-16">
          <mxGeometry y="120" width="254" height="30" as="geometry" />
        </mxCell>
        <mxCell id="T_tdR2kRKv0pg2XBUbw5-27" value="4" style="shape=partialRectangle;html=1;whiteSpace=wrap;connectable=0;fillColor=none;top=0;left=0;bottom=0;right=0;overflow=hidden;strokeColor=inherit;fontSize=16;" vertex="1" parent="T_tdR2kRKv0pg2XBUbw5-26">
          <mxGeometry width="56" height="30" as="geometry">
            <mxRectangle width="56" height="30" as="alternateBounds" />
          </mxGeometry>
        </mxCell>
        <mxCell id="T_tdR2kRKv0pg2XBUbw5-28" value="Kind" style="shape=partialRectangle;html=1;whiteSpace=wrap;connectable=0;fillColor=none;top=0;left=0;bottom=0;right=0;align=left;spacingLeft=6;overflow=hidden;strokeColor=inherit;fontSize=16;" vertex="1" parent="T_tdR2kRKv0pg2XBUbw5-26">
          <mxGeometry x="56" width="198" height="30" as="geometry">
            <mxRectangle width="198" height="30" as="alternateBounds" />
          </mxGeometry>
        </mxCell>
        <mxCell id="T_tdR2kRKv0pg2XBUbw5-49" value="" style="shape=tableRow;horizontal=0;startSize=0;swimlaneHead=0;swimlaneBody=0;top=0;left=0;bottom=0;right=0;collapsible=0;dropTarget=0;fillColor=none;points=[[0,0.5],[1,0.5]];portConstraint=eastwest;strokeColor=inherit;fontSize=16;" vertex="1" parent="T_tdR2kRKv0pg2XBUbw5-16">
          <mxGeometry y="150" width="254" height="30" as="geometry" />
        </mxCell>
        <mxCell id="T_tdR2kRKv0pg2XBUbw5-50" value="5" style="shape=partialRectangle;html=1;whiteSpace=wrap;connectable=0;fillColor=none;top=0;left=0;bottom=0;right=0;overflow=hidden;strokeColor=inherit;fontSize=16;" vertex="1" parent="T_tdR2kRKv0pg2XBUbw5-49">
          <mxGeometry width="56" height="30" as="geometry">
            <mxRectangle width="56" height="30" as="alternateBounds" />
          </mxGeometry>
        </mxCell>
        <mxCell id="T_tdR2kRKv0pg2XBUbw5-51" value="Title" style="shape=partialRectangle;html=1;whiteSpace=wrap;connectable=0;fillColor=none;top=0;left=0;bottom=0;right=0;align=left;spacingLeft=6;overflow=hidden;strokeColor=inherit;fontSize=16;" vertex="1" parent="T_tdR2kRKv0pg2XBUbw5-49">
          <mxGeometry x="56" width="198" height="30" as="geometry">
            <mxRectangle width="198" height="30" as="alternateBounds" />
          </mxGeometry>
        </mxCell>
        <mxCell id="T_tdR2kRKv0pg2XBUbw5-55" value="" style="shape=tableRow;horizontal=0;startSize=0;swimlaneHead=0;swimlaneBody=0;top=0;left=0;bottom=0;right=0;collapsible=0;dropTarget=0;fillColor=none;points=[[0,0.5],[1,0.5]];portConstraint=eastwest;strokeColor=inherit;fontSize=16;" vertex="1" parent="T_tdR2kRKv0pg2XBUbw5-16">
          <mxGeometry y="180" width="254" height="30" as="geometry" />
        </mxCell>
        <mxCell id="T_tdR2kRKv0pg2XBUbw5-56" value="6" style="shape=partialRectangle;html=1;whiteSpace=wrap;connectable=0;fillColor=none;top=0;left=0;bottom=0;right=0;overflow=hidden;strokeColor=inherit;fontSize=16;" vertex="1" parent="T_tdR2kRKv0pg2XBUbw5-55">
          <mxGeometry width="56" height="30" as="geometry">
            <mxRectangle width="56" height="30" as="alternateBounds" />
          </mxGeometry>
        </mxCell>
        <mxCell id="T_tdR2kRKv0pg2XBUbw5-57" value="Message" style="shape=partialRectangle;html=1;whiteSpace=wrap;connectable=0;fillColor=none;top=0;left=0;bottom=0;right=0;align=left;spacingLeft=6;overflow=hidden;strokeColor=inherit;fontSize=16;" vertex="1" parent="T_tdR2kRKv0pg2XBUbw5-55">
          <mxGeometry x="56" width="198" height="30" as="geometry">
            <mxRectangle width="198" height="30" as="alternateBounds" />
          </mxGeometry>
        </mxCell>
        <mxCell id="T_tdR2kRKv0pg2XBUbw5-58" value="" style="shape=tableRow;horizontal=0;startSize=0;swimlaneHead=0;swimlaneBody=0;top=0;left=0;bottom=0;right=0;collapsible=0;dropTarget=0;fillColor=none;points=[[0,0.5],[1,0.5]];portConstraint=eastwest;strokeColor=inherit;fontSize=16;" vertex="1" parent="T_tdR2kRKv0pg2XBUbw5-16">
          <mxGeometry y="210" width="254" height="30" as="geometry" />
        </mxCell>
        <mxCell id="T_tdR2kRKv0pg2XBUbw5-59" value="7" style="shape=partialRectangle;html=1;whiteSpace=wrap;connectable=0;fillColor=none;top=0;left=0;bottom=0;right=0;overflow=hidden;strokeColor=inherit;fontSize=16;" vertex="1" parent="T_tdR2kRKv0pg2XBUbw5-58">
          <mxGeometry width="56" height="30" as="geometry">
            <mxRectangle width="56" height="30" as="alternateBounds" />
          </mxGeometry>
        </mxCell>
        <mxCell id="T_tdR2kRKv0pg2XBUbw5-60" value="Description" style="shape=partialRectangle;html=1;whiteSpace=wrap;connectable=0;fillColor=none;top=0;left=0;bottom=0;right=0;align=left;spacingLeft=6;overflow=hidden;strokeColor=inherit;fontSize=16;" vertex="1" parent="T_tdR2kRKv0pg2XBUbw5-58">
          <mxGeometry x="56" width="198" height="30" as="geometry">
            <mxRectangle width="198" height="30" as="alternateBounds" />
          </mxGeometry>
        </mxCell>
        <mxCell id="T_tdR2kRKv0pg2XBUbw5-61" value="" style="shape=tableRow;horizontal=0;startSize=0;swimlaneHead=0;swimlaneBody=0;top=0;left=0;bottom=0;right=0;collapsible=0;dropTarget=0;fillColor=none;points=[[0,0.5],[1,0.5]];portConstraint=eastwest;strokeColor=inherit;fontSize=16;" vertex="1" parent="T_tdR2kRKv0pg2XBUbw5-16">
          <mxGeometry y="240" width="254" height="30" as="geometry" />
        </mxCell>
        <mxCell id="T_tdR2kRKv0pg2XBUbw5-62" value="8" style="shape=partialRectangle;html=1;whiteSpace=wrap;connectable=0;fillColor=none;top=0;left=0;bottom=0;right=0;overflow=hidden;strokeColor=inherit;fontSize=16;" vertex="1" parent="T_tdR2kRKv0pg2XBUbw5-61">
          <mxGeometry width="56" height="30" as="geometry">
            <mxRectangle width="56" height="30" as="alternateBounds" />
          </mxGeometry>
        </mxCell>
        <mxCell id="T_tdR2kRKv0pg2XBUbw5-63" value="Posts (blob) (fotos)" style="shape=partialRectangle;html=1;whiteSpace=wrap;connectable=0;fillColor=none;top=0;left=0;bottom=0;right=0;align=left;spacingLeft=6;overflow=hidden;strokeColor=inherit;fontSize=16;" vertex="1" parent="T_tdR2kRKv0pg2XBUbw5-61">
          <mxGeometry x="56" width="198" height="30" as="geometry">
            <mxRectangle width="198" height="30" as="alternateBounds" />
          </mxGeometry>
        </mxCell>
        <mxCell id="T_tdR2kRKv0pg2XBUbw5-64" value="" style="shape=tableRow;horizontal=0;startSize=0;swimlaneHead=0;swimlaneBody=0;top=0;left=0;bottom=0;right=0;collapsible=0;dropTarget=0;fillColor=none;points=[[0,0.5],[1,0.5]];portConstraint=eastwest;strokeColor=inherit;fontSize=16;" vertex="1" parent="T_tdR2kRKv0pg2XBUbw5-16">
          <mxGeometry y="270" width="254" height="30" as="geometry" />
        </mxCell>
        <mxCell id="T_tdR2kRKv0pg2XBUbw5-65" value="9" style="shape=partialRectangle;html=1;whiteSpace=wrap;connectable=0;fillColor=none;top=0;left=0;bottom=0;right=0;overflow=hidden;strokeColor=inherit;fontSize=16;" vertex="1" parent="T_tdR2kRKv0pg2XBUbw5-64">
          <mxGeometry width="56" height="30" as="geometry">
            <mxRectangle width="56" height="30" as="alternateBounds" />
          </mxGeometry>
        </mxCell>
        <mxCell id="T_tdR2kRKv0pg2XBUbw5-66" value="Anexo (blob) (fotos/pdfs)" style="shape=partialRectangle;html=1;whiteSpace=wrap;connectable=0;fillColor=none;top=0;left=0;bottom=0;right=0;align=left;spacingLeft=6;overflow=hidden;strokeColor=inherit;fontSize=16;" vertex="1" parent="T_tdR2kRKv0pg2XBUbw5-64">
          <mxGeometry x="56" width="198" height="30" as="geometry">
            <mxRectangle width="198" height="30" as="alternateBounds" />
          </mxGeometry>
        </mxCell>
        <mxCell id="T_tdR2kRKv0pg2XBUbw5-67" value="" style="shape=tableRow;horizontal=0;startSize=0;swimlaneHead=0;swimlaneBody=0;top=0;left=0;bottom=0;right=0;collapsible=0;dropTarget=0;fillColor=none;points=[[0,0.5],[1,0.5]];portConstraint=eastwest;strokeColor=inherit;fontSize=16;" vertex="1" parent="T_tdR2kRKv0pg2XBUbw5-16">
          <mxGeometry y="300" width="254" height="30" as="geometry" />
        </mxCell>
        <mxCell id="T_tdR2kRKv0pg2XBUbw5-68" value="10" style="shape=partialRectangle;html=1;whiteSpace=wrap;connectable=0;fillColor=none;top=0;left=0;bottom=0;right=0;overflow=hidden;strokeColor=inherit;fontSize=16;" vertex="1" parent="T_tdR2kRKv0pg2XBUbw5-67">
          <mxGeometry width="56" height="30" as="geometry">
            <mxRectangle width="56" height="30" as="alternateBounds" />
          </mxGeometry>
        </mxCell>
        <mxCell id="T_tdR2kRKv0pg2XBUbw5-69" value="Talents (Decimal)" style="shape=partialRectangle;html=1;whiteSpace=wrap;connectable=0;fillColor=none;top=0;left=0;bottom=0;right=0;align=left;spacingLeft=6;overflow=hidden;strokeColor=inherit;fontSize=16;" vertex="1" parent="T_tdR2kRKv0pg2XBUbw5-67">
          <mxGeometry x="56" width="198" height="30" as="geometry">
            <mxRectangle width="198" height="30" as="alternateBounds" />
          </mxGeometry>
        </mxCell>
        <mxCell id="T_tdR2kRKv0pg2XBUbw5-70" value="" style="shape=tableRow;horizontal=0;startSize=0;swimlaneHead=0;swimlaneBody=0;top=0;left=0;bottom=0;right=0;collapsible=0;dropTarget=0;fillColor=none;points=[[0,0.5],[1,0.5]];portConstraint=eastwest;strokeColor=inherit;fontSize=16;" vertex="1" parent="T_tdR2kRKv0pg2XBUbw5-16">
          <mxGeometry y="330" width="254" height="30" as="geometry" />
        </mxCell>
        <mxCell id="T_tdR2kRKv0pg2XBUbw5-71" value="11" style="shape=partialRectangle;html=1;whiteSpace=wrap;connectable=0;fillColor=none;top=0;left=0;bottom=0;right=0;overflow=hidden;strokeColor=inherit;fontSize=16;" vertex="1" parent="T_tdR2kRKv0pg2XBUbw5-70">
          <mxGeometry width="56" height="30" as="geometry">
            <mxRectangle width="56" height="30" as="alternateBounds" />
          </mxGeometry>
        </mxCell>
        <mxCell id="T_tdR2kRKv0pg2XBUbw5-72" value="Consciencius (Decimal)" style="shape=partialRectangle;html=1;whiteSpace=wrap;connectable=0;fillColor=none;top=0;left=0;bottom=0;right=0;align=left;spacingLeft=6;overflow=hidden;strokeColor=inherit;fontSize=16;" vertex="1" parent="T_tdR2kRKv0pg2XBUbw5-70">
          <mxGeometry x="56" width="198" height="30" as="geometry">
            <mxRectangle width="198" height="30" as="alternateBounds" />
          </mxGeometry>
        </mxCell>
        <mxCell id="T_tdR2kRKv0pg2XBUbw5-73" value="" style="shape=tableRow;horizontal=0;startSize=0;swimlaneHead=0;swimlaneBody=0;top=0;left=0;bottom=0;right=0;collapsible=0;dropTarget=0;fillColor=none;points=[[0,0.5],[1,0.5]];portConstraint=eastwest;strokeColor=inherit;fontSize=16;" vertex="1" parent="T_tdR2kRKv0pg2XBUbw5-16">
          <mxGeometry y="360" width="254" height="30" as="geometry" />
        </mxCell>
        <mxCell id="T_tdR2kRKv0pg2XBUbw5-74" value="12" style="shape=partialRectangle;html=1;whiteSpace=wrap;connectable=0;fillColor=none;top=0;left=0;bottom=0;right=0;overflow=hidden;strokeColor=inherit;fontSize=16;" vertex="1" parent="T_tdR2kRKv0pg2XBUbw5-73">
          <mxGeometry width="56" height="30" as="geometry">
            <mxRectangle width="56" height="30" as="alternateBounds" />
          </mxGeometry>
        </mxCell>
        <mxCell id="T_tdR2kRKv0pg2XBUbw5-75" value="StartVideoLink(string)" style="shape=partialRectangle;html=1;whiteSpace=wrap;connectable=0;fillColor=none;top=0;left=0;bottom=0;right=0;align=left;spacingLeft=6;overflow=hidden;strokeColor=inherit;fontSize=16;" vertex="1" parent="T_tdR2kRKv0pg2XBUbw5-73">
          <mxGeometry x="56" width="198" height="30" as="geometry">
            <mxRectangle width="198" height="30" as="alternateBounds" />
          </mxGeometry>
        </mxCell>
        <mxCell id="T_tdR2kRKv0pg2XBUbw5-29" style="edgeStyle=orthogonalEdgeStyle;rounded=0;orthogonalLoop=1;jettySize=auto;html=1;exitX=1;exitY=0.5;exitDx=0;exitDy=0;entryX=0;entryY=0.5;entryDx=0;entryDy=0;" edge="1" parent="1" source="T_tdR2kRKv0pg2XBUbw5-17" target="T_tdR2kRKv0pg2XBUbw5-8">
          <mxGeometry relative="1" as="geometry" />
        </mxCell>
        <mxCell id="T_tdR2kRKv0pg2XBUbw5-36" value="Respectivamente, data que recebeu a task, data que completou a task e data de conclusão dessa task" style="text;html=1;align=center;verticalAlign=middle;whiteSpace=wrap;rounded=0;" vertex="1" parent="1">
          <mxGeometry x="242" y="102.99979238754324" width="193" height="64.42214532871972" as="geometry" />
        </mxCell>
        <mxCell id="T_tdR2kRKv0pg2XBUbw5-37" value="&lt;div align=&quot;left&quot;&gt;&lt;i&gt;Se o numero de tasks é finito, então não é melhor só deixar a task randomica enquanto o user acabar por não completar a task?&lt;/i&gt;&lt;/div&gt;" style="text;html=1;align=left;verticalAlign=middle;whiteSpace=wrap;rounded=0;fontStyle=1" vertex="1" parent="1">
          <mxGeometry x="248" y="20.14792387543247" width="193" height="64.42214532871972" as="geometry" />
        </mxCell>
        <mxCell id="T_tdR2kRKv0pg2XBUbw5-42" style="edgeStyle=orthogonalEdgeStyle;rounded=0;orthogonalLoop=1;jettySize=auto;html=1;exitX=1;exitY=0.5;exitDx=0;exitDy=0;entryX=0;entryY=0.5;entryDx=0;entryDy=0;" edge="1" parent="1" source="T_tdR2kRKv0pg2XBUbw5-41" target="T_tdR2kRKv0pg2XBUbw5-20">
          <mxGeometry relative="1" as="geometry" />
        </mxCell>
        <mxCell id="T_tdR2kRKv0pg2XBUbw5-41" value="Task,Enigma, Teste e SuperTeste" style="text;html=1;align=center;verticalAlign=middle;whiteSpace=wrap;rounded=0;" vertex="1" parent="1">
          <mxGeometry x="-492" y="220.07612456747404" width="188" height="33.32179930795847" as="geometry" />
        </mxCell>
        <mxCell id="T_tdR2kRKv0pg2XBUbw5-45" style="edgeStyle=orthogonalEdgeStyle;rounded=0;orthogonalLoop=1;jettySize=auto;html=1;exitX=1;exitY=0.5;exitDx=0;exitDy=0;entryX=0;entryY=0.5;entryDx=0;entryDy=0;" edge="1" parent="1" source="T_tdR2kRKv0pg2XBUbw5-43" target="T_tdR2kRKv0pg2XBUbw5-23">
          <mxGeometry relative="1" as="geometry" />
        </mxCell>
        <mxCell id="T_tdR2kRKv0pg2XBUbw5-43" value="Earth, etc..." style="text;html=1;align=center;verticalAlign=middle;whiteSpace=wrap;rounded=0;" vertex="1" parent="1">
          <mxGeometry x="-498" y="253.39792387543247" width="188" height="33.32179930795847" as="geometry" />
        </mxCell>
        <mxCell id="T_tdR2kRKv0pg2XBUbw5-48" style="edgeStyle=orthogonalEdgeStyle;rounded=0;orthogonalLoop=1;jettySize=auto;html=1;exitX=1;exitY=0.5;exitDx=0;exitDy=0;entryX=0;entryY=0.5;entryDx=0;entryDy=0;" edge="1" parent="1" source="T_tdR2kRKv0pg2XBUbw5-47" target="T_tdR2kRKv0pg2XBUbw5-26">
          <mxGeometry relative="1" as="geometry" />
        </mxCell>
        <mxCell id="T_tdR2kRKv0pg2XBUbw5-47" value="Ativo, Passivo e Neutralizante" style="text;html=1;align=center;verticalAlign=middle;whiteSpace=wrap;rounded=0;" vertex="1" parent="1">
          <mxGeometry x="-498" y="286.71972318339095" width="188" height="33.32179930795847" as="geometry" />
        </mxCell>
        <mxCell id="T_tdR2kRKv0pg2XBUbw5-76" value="AWS S3" style="strokeWidth=2;html=1;shape=mxgraph.flowchart.database;whiteSpace=wrap;" vertex="1" parent="1">
          <mxGeometry x="123" y="429" width="73" height="67" as="geometry" />
        </mxCell>
        <mxCell id="T_tdR2kRKv0pg2XBUbw5-77" style="edgeStyle=orthogonalEdgeStyle;rounded=0;orthogonalLoop=1;jettySize=auto;html=1;exitX=1;exitY=0.5;exitDx=0;exitDy=0;entryX=0.5;entryY=0;entryDx=0;entryDy=0;entryPerimeter=0;" edge="1" parent="1" source="T_tdR2kRKv0pg2XBUbw5-61" target="T_tdR2kRKv0pg2XBUbw5-76">
          <mxGeometry relative="1" as="geometry" />
        </mxCell>
        <mxCell id="T_tdR2kRKv0pg2XBUbw5-78" style="edgeStyle=orthogonalEdgeStyle;rounded=0;orthogonalLoop=1;jettySize=auto;html=1;exitX=1;exitY=0.5;exitDx=0;exitDy=0;entryX=0;entryY=0.15;entryDx=0;entryDy=0;entryPerimeter=0;" edge="1" parent="1" source="T_tdR2kRKv0pg2XBUbw5-64" target="T_tdR2kRKv0pg2XBUbw5-76">
          <mxGeometry relative="1" as="geometry" />
        </mxCell>
        <mxCell id="T_tdR2kRKv0pg2XBUbw5-80" value="&lt;font style=&quot;font-size: 50px;&quot;&gt;Database Postgres&lt;/font&gt;" style="text;html=1;align=center;verticalAlign=middle;resizable=0;points=[];autosize=1;strokeColor=none;fillColor=none;" vertex="1" parent="1">
          <mxGeometry x="-242" y="-199" width="443" height="72" as="geometry" />
        </mxCell>
        <mxCell id="T_tdR2kRKv0pg2XBUbw5-81" value="" style="rounded=0;whiteSpace=wrap;html=1;" vertex="1" parent="1">
          <mxGeometry x="511" y="-199" width="983" height="777" as="geometry" />
        </mxCell>
        <mxCell id="T_tdR2kRKv0pg2XBUbw5-82" value="Logica Principal" style="text;html=1;align=center;verticalAlign=middle;resizable=0;points=[];autosize=1;strokeColor=none;fillColor=none;fontSize=42;" vertex="1" parent="1">
          <mxGeometry x="841" y="-183" width="315" height="62" as="geometry" />
        </mxCell>
        <mxCell id="T_tdR2kRKv0pg2XBUbw5-98" value="" style="edgeStyle=orthogonalEdgeStyle;rounded=0;orthogonalLoop=1;jettySize=auto;html=1;" edge="1" parent="1" source="T_tdR2kRKv0pg2XBUbw5-86">
          <mxGeometry relative="1" as="geometry">
            <mxPoint x="669.5714285714289" y="27" as="targetPoint" />
          </mxGeometry>
        </mxCell>
        <mxCell id="T_tdR2kRKv0pg2XBUbw5-1" value="UserHistory" style="shape=table;startSize=30;container=1;collapsible=0;childLayout=tableLayout;fixedRows=1;rowLines=0;fontStyle=1;strokeColor=default;fontSize=16;" vertex="1" parent="1">
          <mxGeometry x="50" y="27" width="180" height="240" as="geometry" />
        </mxCell>
        <mxCell id="T_tdR2kRKv0pg2XBUbw5-2" value="" style="shape=tableRow;horizontal=0;startSize=0;swimlaneHead=0;swimlaneBody=0;top=0;left=0;bottom=0;right=0;collapsible=0;dropTarget=0;fillColor=none;points=[[0,0.5],[1,0.5]];portConstraint=eastwest;strokeColor=inherit;fontSize=16;" vertex="1" parent="T_tdR2kRKv0pg2XBUbw5-1">
          <mxGeometry y="30" width="180" height="30" as="geometry" />
        </mxCell>
        <mxCell id="T_tdR2kRKv0pg2XBUbw5-3" value="1" style="shape=partialRectangle;html=1;whiteSpace=wrap;connectable=0;fillColor=none;top=0;left=0;bottom=0;right=0;overflow=hidden;pointerEvents=1;strokeColor=inherit;fontSize=16;" vertex="1" parent="T_tdR2kRKv0pg2XBUbw5-2">
          <mxGeometry width="40" height="30" as="geometry">
            <mxRectangle width="40" height="30" as="alternateBounds" />
          </mxGeometry>
        </mxCell>
        <mxCell id="T_tdR2kRKv0pg2XBUbw5-4" value="ID" style="shape=partialRectangle;html=1;whiteSpace=wrap;connectable=0;fillColor=none;top=0;left=0;bottom=0;right=0;align=left;spacingLeft=6;overflow=hidden;strokeColor=inherit;fontSize=16;" vertex="1" parent="T_tdR2kRKv0pg2XBUbw5-2">
          <mxGeometry x="40" width="140" height="30" as="geometry">
            <mxRectangle width="140" height="30" as="alternateBounds" />
          </mxGeometry>
        </mxCell>
        <mxCell id="T_tdR2kRKv0pg2XBUbw5-5" value="" style="shape=tableRow;horizontal=0;startSize=0;swimlaneHead=0;swimlaneBody=0;top=0;left=0;bottom=0;right=0;collapsible=0;dropTarget=0;fillColor=none;points=[[0,0.5],[1,0.5]];portConstraint=eastwest;strokeColor=inherit;fontSize=16;" vertex="1" parent="T_tdR2kRKv0pg2XBUbw5-1">
          <mxGeometry y="60" width="180" height="30" as="geometry" />
        </mxCell>
        <mxCell id="T_tdR2kRKv0pg2XBUbw5-6" value="2" style="shape=partialRectangle;html=1;whiteSpace=wrap;connectable=0;fillColor=none;top=0;left=0;bottom=0;right=0;overflow=hidden;strokeColor=inherit;fontSize=16;" vertex="1" parent="T_tdR2kRKv0pg2XBUbw5-5">
          <mxGeometry width="40" height="30" as="geometry">
            <mxRectangle width="40" height="30" as="alternateBounds" />
          </mxGeometry>
        </mxCell>
        <mxCell id="T_tdR2kRKv0pg2XBUbw5-7" value="UserId" style="shape=partialRectangle;html=1;whiteSpace=wrap;connectable=0;fillColor=none;top=0;left=0;bottom=0;right=0;align=left;spacingLeft=6;overflow=hidden;strokeColor=inherit;fontSize=16;" vertex="1" parent="T_tdR2kRKv0pg2XBUbw5-5">
          <mxGeometry x="40" width="140" height="30" as="geometry">
            <mxRectangle width="140" height="30" as="alternateBounds" />
          </mxGeometry>
        </mxCell>
        <mxCell id="T_tdR2kRKv0pg2XBUbw5-8" value="" style="shape=tableRow;horizontal=0;startSize=0;swimlaneHead=0;swimlaneBody=0;top=0;left=0;bottom=0;right=0;collapsible=0;dropTarget=0;fillColor=none;points=[[0,0.5],[1,0.5]];portConstraint=eastwest;strokeColor=inherit;fontSize=16;" vertex="1" parent="T_tdR2kRKv0pg2XBUbw5-1">
          <mxGeometry y="90" width="180" height="30" as="geometry" />
        </mxCell>
        <mxCell id="T_tdR2kRKv0pg2XBUbw5-9" value="3" style="shape=partialRectangle;html=1;whiteSpace=wrap;connectable=0;fillColor=none;top=0;left=0;bottom=0;right=0;overflow=hidden;strokeColor=inherit;fontSize=16;" vertex="1" parent="T_tdR2kRKv0pg2XBUbw5-8">
          <mxGeometry width="40" height="30" as="geometry">
            <mxRectangle width="40" height="30" as="alternateBounds" />
          </mxGeometry>
        </mxCell>
        <mxCell id="T_tdR2kRKv0pg2XBUbw5-10" value="TaskId" style="shape=partialRectangle;html=1;whiteSpace=wrap;connectable=0;fillColor=none;top=0;left=0;bottom=0;right=0;align=left;spacingLeft=6;overflow=hidden;strokeColor=inherit;fontSize=16;" vertex="1" parent="T_tdR2kRKv0pg2XBUbw5-8">
          <mxGeometry x="40" width="140" height="30" as="geometry">
            <mxRectangle width="140" height="30" as="alternateBounds" />
          </mxGeometry>
        </mxCell>
        <mxCell id="T_tdR2kRKv0pg2XBUbw5-11" value="" style="shape=tableRow;horizontal=0;startSize=0;swimlaneHead=0;swimlaneBody=0;top=0;left=0;bottom=0;right=0;collapsible=0;dropTarget=0;fillColor=none;points=[[0,0.5],[1,0.5]];portConstraint=eastwest;strokeColor=inherit;fontSize=16;" vertex="1" parent="T_tdR2kRKv0pg2XBUbw5-1">
          <mxGeometry y="120" width="180" height="30" as="geometry" />
        </mxCell>
        <mxCell id="T_tdR2kRKv0pg2XBUbw5-12" value="4" style="shape=partialRectangle;html=1;whiteSpace=wrap;connectable=0;fillColor=none;top=0;left=0;bottom=0;right=0;overflow=hidden;strokeColor=inherit;fontSize=16;" vertex="1" parent="T_tdR2kRKv0pg2XBUbw5-11">
          <mxGeometry width="40" height="30" as="geometry">
            <mxRectangle width="40" height="30" as="alternateBounds" />
          </mxGeometry>
        </mxCell>
        <mxCell id="T_tdR2kRKv0pg2XBUbw5-13" value="DataReceive" style="shape=partialRectangle;html=1;whiteSpace=wrap;connectable=0;fillColor=none;top=0;left=0;bottom=0;right=0;align=left;spacingLeft=6;overflow=hidden;strokeColor=inherit;fontSize=16;" vertex="1" parent="T_tdR2kRKv0pg2XBUbw5-11">
          <mxGeometry x="40" width="140" height="30" as="geometry">
            <mxRectangle width="140" height="30" as="alternateBounds" />
          </mxGeometry>
        </mxCell>
        <mxCell id="T_tdR2kRKv0pg2XBUbw5-30" value="" style="shape=tableRow;horizontal=0;startSize=0;swimlaneHead=0;swimlaneBody=0;top=0;left=0;bottom=0;right=0;collapsible=0;dropTarget=0;fillColor=none;points=[[0,0.5],[1,0.5]];portConstraint=eastwest;strokeColor=inherit;fontSize=16;" vertex="1" parent="T_tdR2kRKv0pg2XBUbw5-1">
          <mxGeometry y="150" width="180" height="30" as="geometry" />
        </mxCell>
        <mxCell id="T_tdR2kRKv0pg2XBUbw5-31" value="5" style="shape=partialRectangle;html=1;whiteSpace=wrap;connectable=0;fillColor=none;top=0;left=0;bottom=0;right=0;overflow=hidden;strokeColor=inherit;fontSize=16;" vertex="1" parent="T_tdR2kRKv0pg2XBUbw5-30">
          <mxGeometry width="40" height="30" as="geometry">
            <mxRectangle width="40" height="30" as="alternateBounds" />
          </mxGeometry>
        </mxCell>
        <mxCell id="T_tdR2kRKv0pg2XBUbw5-32" value="DataFinished" style="shape=partialRectangle;html=1;whiteSpace=wrap;connectable=0;fillColor=none;top=0;left=0;bottom=0;right=0;align=left;spacingLeft=6;overflow=hidden;strokeColor=inherit;fontSize=16;" vertex="1" parent="T_tdR2kRKv0pg2XBUbw5-30">
          <mxGeometry x="40" width="140" height="30" as="geometry">
            <mxRectangle width="140" height="30" as="alternateBounds" />
          </mxGeometry>
        </mxCell>
        <mxCell id="T_tdR2kRKv0pg2XBUbw5-33" value="" style="shape=tableRow;horizontal=0;startSize=0;swimlaneHead=0;swimlaneBody=0;top=0;left=0;bottom=0;right=0;collapsible=0;dropTarget=0;fillColor=none;points=[[0,0.5],[1,0.5]];portConstraint=eastwest;strokeColor=inherit;fontSize=16;" vertex="1" parent="T_tdR2kRKv0pg2XBUbw5-1">
          <mxGeometry y="180" width="180" height="30" as="geometry" />
        </mxCell>
        <mxCell id="T_tdR2kRKv0pg2XBUbw5-34" value="6" style="shape=partialRectangle;html=1;whiteSpace=wrap;connectable=0;fillColor=none;top=0;left=0;bottom=0;right=0;overflow=hidden;strokeColor=inherit;fontSize=16;" vertex="1" parent="T_tdR2kRKv0pg2XBUbw5-33">
          <mxGeometry width="40" height="30" as="geometry">
            <mxRectangle width="40" height="30" as="alternateBounds" />
          </mxGeometry>
        </mxCell>
        <mxCell id="T_tdR2kRKv0pg2XBUbw5-35" value="DataPrevision" style="shape=partialRectangle;html=1;whiteSpace=wrap;connectable=0;fillColor=none;top=0;left=0;bottom=0;right=0;align=left;spacingLeft=6;overflow=hidden;strokeColor=inherit;fontSize=16;" vertex="1" parent="T_tdR2kRKv0pg2XBUbw5-33">
          <mxGeometry x="40" width="140" height="30" as="geometry">
            <mxRectangle width="140" height="30" as="alternateBounds" />
          </mxGeometry>
        </mxCell>
        <mxCell id="T_tdR2kRKv0pg2XBUbw5-87" value="" style="shape=tableRow;horizontal=0;startSize=0;swimlaneHead=0;swimlaneBody=0;top=0;left=0;bottom=0;right=0;collapsible=0;dropTarget=0;fillColor=none;points=[[0,0.5],[1,0.5]];portConstraint=eastwest;strokeColor=inherit;fontSize=16;" vertex="1" parent="T_tdR2kRKv0pg2XBUbw5-1">
          <mxGeometry y="210" width="180" height="30" as="geometry" />
        </mxCell>
        <mxCell id="T_tdR2kRKv0pg2XBUbw5-88" value="7" style="shape=partialRectangle;html=1;whiteSpace=wrap;connectable=0;fillColor=none;top=0;left=0;bottom=0;right=0;overflow=hidden;strokeColor=inherit;fontSize=16;" vertex="1" parent="T_tdR2kRKv0pg2XBUbw5-87">
          <mxGeometry width="40" height="30" as="geometry">
            <mxRectangle width="40" height="30" as="alternateBounds" />
          </mxGeometry>
        </mxCell>
        <mxCell id="T_tdR2kRKv0pg2XBUbw5-89" value="Status" style="shape=partialRectangle;html=1;whiteSpace=wrap;connectable=0;fillColor=none;top=0;left=0;bottom=0;right=0;align=left;spacingLeft=6;overflow=hidden;strokeColor=inherit;fontSize=16;" vertex="1" parent="T_tdR2kRKv0pg2XBUbw5-87">
          <mxGeometry x="40" width="140" height="30" as="geometry">
            <mxRectangle width="140" height="30" as="alternateBounds" />
          </mxGeometry>
        </mxCell>
        <mxCell id="T_tdR2kRKv0pg2XBUbw5-132" value="UserAttributes" style="shape=table;startSize=30;container=1;collapsible=0;childLayout=tableLayout;fixedRows=1;rowLines=0;fontStyle=1;strokeColor=default;fontSize=16;" vertex="1" parent="1">
          <mxGeometry x="-441" y="-118.78" width="180" height="145.7800087193083" as="geometry" />
        </mxCell>
        <mxCell id="T_tdR2kRKv0pg2XBUbw5-133" value="" style="shape=tableRow;horizontal=0;startSize=0;swimlaneHead=0;swimlaneBody=0;top=0;left=0;bottom=0;right=0;collapsible=0;dropTarget=0;fillColor=none;points=[[0,0.5],[1,0.5]];portConstraint=eastwest;strokeColor=inherit;fontSize=16;" vertex="1" parent="T_tdR2kRKv0pg2XBUbw5-132">
          <mxGeometry y="30" width="180" height="24" as="geometry" />
        </mxCell>
        <mxCell id="T_tdR2kRKv0pg2XBUbw5-134" value="1" style="shape=partialRectangle;html=1;whiteSpace=wrap;connectable=0;fillColor=none;top=0;left=0;bottom=0;right=0;overflow=hidden;pointerEvents=1;strokeColor=inherit;fontSize=16;" vertex="1" parent="T_tdR2kRKv0pg2XBUbw5-133">
          <mxGeometry width="40" height="24" as="geometry">
            <mxRectangle width="40" height="24" as="alternateBounds" />
          </mxGeometry>
        </mxCell>
        <mxCell id="T_tdR2kRKv0pg2XBUbw5-135" value="ID" style="shape=partialRectangle;html=1;whiteSpace=wrap;connectable=0;fillColor=none;top=0;left=0;bottom=0;right=0;align=left;spacingLeft=6;overflow=hidden;strokeColor=inherit;fontSize=16;" vertex="1" parent="T_tdR2kRKv0pg2XBUbw5-133">
          <mxGeometry x="40" width="140" height="24" as="geometry">
            <mxRectangle width="140" height="24" as="alternateBounds" />
          </mxGeometry>
        </mxCell>
        <mxCell id="T_tdR2kRKv0pg2XBUbw5-136" value="" style="shape=tableRow;horizontal=0;startSize=0;swimlaneHead=0;swimlaneBody=0;top=0;left=0;bottom=0;right=0;collapsible=0;dropTarget=0;fillColor=none;points=[[0,0.5],[1,0.5]];portConstraint=eastwest;strokeColor=inherit;fontSize=16;" vertex="1" parent="T_tdR2kRKv0pg2XBUbw5-132">
          <mxGeometry y="54" width="180" height="30" as="geometry" />
        </mxCell>
        <mxCell id="T_tdR2kRKv0pg2XBUbw5-137" value="2" style="shape=partialRectangle;html=1;whiteSpace=wrap;connectable=0;fillColor=none;top=0;left=0;bottom=0;right=0;overflow=hidden;strokeColor=inherit;fontSize=16;" vertex="1" parent="T_tdR2kRKv0pg2XBUbw5-136">
          <mxGeometry width="40" height="30" as="geometry">
            <mxRectangle width="40" height="30" as="alternateBounds" />
          </mxGeometry>
        </mxCell>
        <mxCell id="T_tdR2kRKv0pg2XBUbw5-138" value="UserId" style="shape=partialRectangle;html=1;whiteSpace=wrap;connectable=0;fillColor=none;top=0;left=0;bottom=0;right=0;align=left;spacingLeft=6;overflow=hidden;strokeColor=inherit;fontSize=16;" vertex="1" parent="T_tdR2kRKv0pg2XBUbw5-136">
          <mxGeometry x="40" width="140" height="30" as="geometry">
            <mxRectangle width="140" height="30" as="alternateBounds" />
          </mxGeometry>
        </mxCell>
        <mxCell id="T_tdR2kRKv0pg2XBUbw5-139" value="" style="shape=tableRow;horizontal=0;startSize=0;swimlaneHead=0;swimlaneBody=0;top=0;left=0;bottom=0;right=0;collapsible=0;dropTarget=0;fillColor=none;points=[[0,0.5],[1,0.5]];portConstraint=eastwest;strokeColor=inherit;fontSize=16;" vertex="1" parent="T_tdR2kRKv0pg2XBUbw5-132">
          <mxGeometry y="84" width="180" height="30" as="geometry" />
        </mxCell>
        <mxCell id="T_tdR2kRKv0pg2XBUbw5-140" value="3" style="shape=partialRectangle;html=1;whiteSpace=wrap;connectable=0;fillColor=none;top=0;left=0;bottom=0;right=0;overflow=hidden;strokeColor=inherit;fontSize=16;" vertex="1" parent="T_tdR2kRKv0pg2XBUbw5-139">
          <mxGeometry width="40" height="30" as="geometry">
            <mxRectangle width="40" height="30" as="alternateBounds" />
          </mxGeometry>
        </mxCell>
        <mxCell id="T_tdR2kRKv0pg2XBUbw5-141" value="Consciencius" style="shape=partialRectangle;html=1;whiteSpace=wrap;connectable=0;fillColor=none;top=0;left=0;bottom=0;right=0;align=left;spacingLeft=6;overflow=hidden;strokeColor=inherit;fontSize=16;" vertex="1" parent="T_tdR2kRKv0pg2XBUbw5-139">
          <mxGeometry x="40" width="140" height="30" as="geometry">
            <mxRectangle width="140" height="30" as="alternateBounds" />
          </mxGeometry>
        </mxCell>
        <mxCell id="T_tdR2kRKv0pg2XBUbw5-142" value="" style="shape=tableRow;horizontal=0;startSize=0;swimlaneHead=0;swimlaneBody=0;top=0;left=0;bottom=0;right=0;collapsible=0;dropTarget=0;fillColor=none;points=[[0,0.5],[1,0.5]];portConstraint=eastwest;strokeColor=inherit;fontSize=16;" vertex="1" parent="T_tdR2kRKv0pg2XBUbw5-132">
          <mxGeometry y="114" width="180" height="30" as="geometry" />
        </mxCell>
        <mxCell id="T_tdR2kRKv0pg2XBUbw5-143" value="4" style="shape=partialRectangle;html=1;whiteSpace=wrap;connectable=0;fillColor=none;top=0;left=0;bottom=0;right=0;overflow=hidden;strokeColor=inherit;fontSize=16;" vertex="1" parent="T_tdR2kRKv0pg2XBUbw5-142">
          <mxGeometry width="40" height="30" as="geometry">
            <mxRectangle width="40" height="30" as="alternateBounds" />
          </mxGeometry>
        </mxCell>
        <mxCell id="T_tdR2kRKv0pg2XBUbw5-144" value="Talents" style="shape=partialRectangle;html=1;whiteSpace=wrap;connectable=0;fillColor=none;top=0;left=0;bottom=0;right=0;align=left;spacingLeft=6;overflow=hidden;strokeColor=inherit;fontSize=16;" vertex="1" parent="T_tdR2kRKv0pg2XBUbw5-142">
          <mxGeometry x="40" width="140" height="30" as="geometry">
            <mxRectangle width="140" height="30" as="alternateBounds" />
          </mxGeometry>
        </mxCell>
        <mxCell id="T_tdR2kRKv0pg2XBUbw5-145" style="edgeStyle=orthogonalEdgeStyle;rounded=0;orthogonalLoop=1;jettySize=auto;html=1;exitX=0;exitY=0.5;exitDx=0;exitDy=0;entryX=1;entryY=0.5;entryDx=0;entryDy=0;" edge="1" parent="1" source="B_N775TEVK_9BKgCkRrB-2" target="T_tdR2kRKv0pg2XBUbw5-136">
          <mxGeometry relative="1" as="geometry" />
        </mxCell>
        <mxCell id="T_tdR2kRKv0pg2XBUbw5-146" value="Toda vez que o usuário completar uma task, ele vai pegar os Talents e a Consciencius e somar, basicamente isso" style="text;html=1;align=center;verticalAlign=middle;whiteSpace=wrap;rounded=0;" vertex="1" parent="1">
          <mxGeometry x="-524" y="-182.99626297577856" width="282" height="78.86159169550173" as="geometry" />
        </mxCell>
      </root>
    </mxGraphModel>
  </diagram>
</mxfile>
